<svg width="32" height="32" viewBox="0 0 32 32" fill="none" xmlns="http://www.w3.org/2000/svg">
<g clip-path="url(#clip0_175_14778)">
<path d="M2.36251 11.8049L2.06901 12.7641L3.067 12.6633L26.827 10.2633L26.9117 10.2547L26.9915 10.2252L30.2315 9.02517L31.1526 8.68405L30.4955 7.95402L28.3355 5.55402L28.0594 5.24716L27.6616 5.35765L23.4079 6.53924L5.11652 7.73475C4.62046 7.76717 4.24558 8.10614 4.00457 8.38457C3.74081 8.68927 3.50364 9.07903 3.29924 9.47297C2.88802 10.2655 2.55012 11.1918 2.36251 11.8049Z" fill="white" stroke="black" stroke-width="1.33333"/>
<path d="M5.16 14.3333H5.14186L5.12374 14.3343C4.66948 14.3591 4.30295 14.6233 4.04626 14.8705C3.77587 15.1308 3.53315 15.4634 3.32506 15.7976C2.9072 16.4688 2.56477 17.2512 2.37419 17.7702L2.0298 18.7081L3.02803 18.6661L26.788 17.6661L26.8742 17.6625L26.9566 17.637L30.1966 16.637L31.3011 16.2961L30.4529 15.5108L28.2929 13.5108L28.0338 13.2709L27.6897 13.3505L23.4438 14.3333H5.16Z" fill="white" stroke="black" stroke-width="1.33333"/>
<path d="M27.84 25.4167L27.8627 25.4167L27.8853 25.4151C28.3912 25.3807 28.7672 25.0227 29.0041 24.7377C29.2662 24.4223 29.5021 24.0186 29.7057 23.6097C30.1156 22.7869 30.4526 21.8247 30.6396 21.1879L30.9049 20.2848L29.965 20.3343L6.20498 21.5843L6.09902 21.5898L6.00004 21.628L2.76004 22.878L1.87619 23.219L2.49554 23.9359L4.65554 26.4358L4.93488 26.7592L5.3453 26.6404L9.57451 25.4167L27.84 25.4167Z" fill="white" stroke="black" stroke-width="1.33333"/>
</g>
<defs>
<clipPath id="clip0_175_14778">
<rect width="32" height="32" fill="white"/>
</clipPath>
</defs>
</svg>
