<svg width="32" height="32" viewBox="0 0 32 32" fill="none" xmlns="http://www.w3.org/2000/svg">
<path d="M27.4047 23.6805L28.2905 23.2098L27.5135 22.5754L9.01561 7.47164L8.94967 7.41779L8.8723 7.38225L5.73275 5.93975L4.84029 5.5297L4.78867 6.51049L4.61897 9.7349L4.59727 10.1472L4.95667 10.3503L8.8 12.5226L22.5793 24.6112C22.953 24.9391 23.4578 24.9645 23.825 24.938C24.227 24.909 24.6703 24.8011 25.0934 24.6671C25.9446 24.3975 26.8385 23.9814 27.4047 23.6805Z" fill="white" stroke="black" stroke-width="1.33333"/>
<path d="M7.30297 22.8402L7.29014 22.853L7.27803 22.8665C6.97431 23.2052 6.90201 23.6513 6.89524 24.0075C6.88811 24.3828 6.95171 24.7896 7.04089 25.1731C7.21999 25.9431 7.53111 26.7385 7.76334 27.2403L8.183 28.147L8.85915 27.4114L24.9529 9.90346L25.0113 9.83997L25.0516 9.76371L26.6355 6.76558L27.1754 5.74357L26.0204 5.78799L23.0788 5.90113L22.7259 5.91471L22.5389 6.21435L20.2316 9.91156L7.30297 22.8402Z" fill="white" stroke="black" stroke-width="1.33333"/>
</svg>
