<svg width="24" height="24" viewBox="0 0 24 24" fill="none" xmlns="http://www.w3.org/2000/svg">
<path d="M22.635 4.17517L22.635 4.1753L19.5348 19.2506L19.5348 19.2506C19.4752 19.5404 19.3449 19.8114 19.1546 20.0384C18.9643 20.2654 18.72 20.4413 18.4434 20.5486C18.1668 20.656 17.8675 20.691 17.5735 20.65C17.2795 20.609 17.0013 20.4935 16.7644 20.3153L16.7643 20.3152L12.7084 17.2631L10.3857 19.495C10.286 19.5908 10.1679 19.6661 10.038 19.7157L10.038 19.7157C9.90802 19.7654 9.76926 19.7884 9.62991 19.783C9.49057 19.7776 9.35407 19.744 9.22844 19.6845M22.635 4.17517L12.6558 16.3891L10.0068 18.9346L10.0006 18.9955L9.94883 18.9902L9.92377 19.0143C9.88801 19.0487 9.84588 19.0755 9.79986 19.0931C9.75383 19.1107 9.70482 19.1187 9.65569 19.1168C9.60656 19.1149 9.5583 19.1031 9.51372 19.082C9.46913 19.0609 9.42912 19.0309 9.39603 18.9939L9.33732 18.9282L9.81202 14.249L17.5098 7.08503L14.3252 9.13809M22.635 4.17517C22.6898 3.90885 22.6733 3.63246 22.5871 3.37449C22.5009 3.11645 22.3477 2.88522 22.1422 2.70577L21.7037 3.20798L22.1422 2.70576C21.9365 2.52622 21.686 2.40524 21.4166 2.3569C21.1471 2.30856 20.8699 2.33492 20.6144 2.43286L20.6141 2.43294L2.17586 9.50783C1.92175 9.60533 1.70566 9.77968 1.55569 10.0048L2.10673 10.3719L1.55569 10.0048C1.40583 10.2297 1.32876 10.495 1.33354 10.7644C1.33833 11.0337 1.42477 11.2961 1.58268 11.5156C1.7407 11.7353 1.96307 11.9017 2.22066 11.9899L2.22072 11.9899L6.93324 13.602L7.23881 13.7065L7.51025 13.5315L14.3252 9.13809M22.635 4.17517L17.0989 6.55674L14.3252 9.13809M9.22844 19.6845L9.50803 19.094L9.22845 19.6845C9.22845 19.6845 9.22844 19.6845 9.22844 19.6845ZM9.22844 19.6845C9.10284 19.6251 8.99097 19.5411 8.89897 19.4382L8.89891 19.4381L8.8402 19.3724L8.6444 19.1533L8.67406 18.8609L9.14875 14.1817L9.17409 13.9319L9.35784 13.7609L14.3252 9.13809" fill="white" stroke="black" stroke-width="1.33333"/>
</svg>
